# xmcd
#
# Track frame offsets: 
#        150
#        20661
#        38251
#        61130
#        76394
#        92857
#
# Disc length: 1467 seconds
#
# Revision: 0
# Processed by: cddbd v1.5.2PL0 Copyright (c) Steve Scherf et al.
# Submitted via: ExactAudioCopyFreeDBPlugin 1.0
#
DISCID=3c05b906
DTITLE=Music By Bradley James - Where Did I Go?
DYEAR=2013
DGENRE=Blues
TTITLE0=When the World Ends (Babe, I Hope You Burn)
TTITLE1=You're Doing Fine
TTITLE2=He's Probably Kissing You Right Now
TTITLE3=That girl Has No Soul
TTITLE4=Where Did I Go
TTITLE5=Postcard Blues and Souvenirs
EXTD=
EXTT0=
EXTT1=
EXTT2=
EXTT3=
EXTT4=
EXTT5=
PLAYORDER=
